<svg xmlns="http://www.w3.org/2000/svg" width="24.294" height="27.365" viewBox="0 0 24.294 27.365"><defs><style>.a{fill:#bd3761;}</style></defs><rect class="a" width="2.473" height="13.619" rx="1.237" transform="translate(8.272 8.634)"/><rect class="a" width="2.473" height="13.619" rx="1.237" transform="translate(13.539 8.634)"/><path class="a" d="M28.939,8.2H21.165a2.619,2.619,0,0,0-2.619,2.619v1.614H13.892a.982.982,0,1,0,0,1.964h1.745l.953,17.147a4.256,4.256,0,0,0,4.256,4.02h8.423a4.256,4.256,0,0,0,4.256-4.02L34.477,14.4h1.745a.982.982,0,1,0,0-1.964H31.558V10.819A2.619,2.619,0,0,0,28.939,8.2Zm-8.425,2.619a.655.655,0,0,1,.655-.655h7.77a.655.655,0,0,1,.655.655v1.614H20.511ZM32.5,14.4,31.557,31.44A2.292,2.292,0,0,1,29.265,33.6h-8.43a2.292,2.292,0,0,1-2.292-2.164L17.6,14.4Z" transform="translate(-12.91 -8.2)"/></svg>