<svg xmlns="http://www.w3.org/2000/svg" width="27.744" height="28" viewBox="0 0 27.744 28"><defs><style>.a,.b{fill:#1673b0;}.a{opacity:0.5;}</style></defs><path class="a" d="M13.14-.321h.89c2.408,0,13.084,6.382,12.993,7.735V21.95a4.361,4.361,0,0,1-4.361,4.361H4.779A4.361,4.361,0,0,1,.418,21.95V7.414C.435,5.435,10.732-.321,13.14-.321Z" transform="translate(0.19 1.242)"/><g transform="translate(0 0)"><path class="b" d="M24.513,28.693H5.231A4.241,4.241,0,0,1,1,24.462V10.16a4.231,4.231,0,0,1,2.217-3.7l9.636-5.257a4.222,4.222,0,0,1,4.037,0l9.636,5.229a4.231,4.231,0,0,1,2.217,3.7v14.33A4.241,4.241,0,0,1,24.513,28.693ZM14.858,2.538a2.384,2.384,0,0,0-1.127.286L4.1,8.063a2.384,2.384,0,0,0-1.247,2.1v14.3a2.384,2.384,0,0,0,2.384,2.384H24.513a2.384,2.384,0,0,0,2.356-2.384V10.16a2.384,2.384,0,0,0-1.247-2.1L16.013,2.824A2.384,2.384,0,0,0,14.858,2.538Z" transform="translate(-1 -0.694)"/><rect class="b" width="9.239" height="1.848" rx="0.924" transform="translate(9.257 21.542)"/></g></svg>