<svg xmlns="http://www.w3.org/2000/svg" width="34.077" height="30.689" viewBox="0 0 34.077 30.689"><defs><style>.a{fill:#fff;}</style></defs><path class="a" d="M28.77,32.149H8.165A2.947,2.947,0,0,1,5.3,29.916l-3.789-15.2A2.947,2.947,0,0,1,4.376,11.1H32.559a2.947,2.947,0,0,1,2.865,3.66l-3.789,15.2a2.947,2.947,0,0,1-2.865,2.187ZM4.376,13.439a.608.608,0,0,0-.6.76L7.569,29.4a.608.608,0,0,0,.6.468H28.77a.608.608,0,0,0,.585-.456l3.789-15.2a.608.608,0,0,0-.6-.76Z" transform="translate(-1.435 -1.461)"/><rect class="a" width="2.339" height="10.349" rx="1" transform="translate(8.281 15.419) rotate(-14.04)"/><rect class="a" width="10.349" height="2.339" rx="1" transform="translate(21.01 24.895) rotate(-75.95)"/><path class="a" d="M8.4,14.375l-2-1.169L12.247,3.5a1.169,1.169,0,0,1,1.579-.479h0a1.169,1.169,0,0,1,.4,1.6Z" transform="translate(-0.593 -2.853)"/><path class="a" d="M24.763,14.379,18.916,4.673a1.169,1.169,0,0,1,.421-1.649h0a1.169,1.169,0,0,1,1.6.4l5.847,9.706Z" transform="translate(1.496 -2.857)"/></svg>