<svg xmlns="http://www.w3.org/2000/svg" width="26.852" height="26.721" viewBox="0 0 26.852 26.721"><defs><style>.a{fill:#fff;}</style></defs><path class="a" d="M47.228,107.628a3.731,3.731,0,0,0,3.728,3.726H68.991a3.731,3.731,0,0,0,3.728-3.726v-5.7a1.157,1.157,0,0,0-2.314,0v5.7a1.415,1.415,0,0,1-1.414,1.413H50.956a1.415,1.415,0,0,1-1.414-1.413V90.887a1.415,1.415,0,0,1,1.414-1.413h5.707a1.156,1.156,0,1,0,0-2.313H50.956a3.731,3.731,0,0,0-3.728,3.726Z" transform="translate(-47.228 -84.634)"/><path class="a" d="M171.3,48.249a3.42,3.42,0,0,0-2.434,1.008L157.283,60.845a1.169,1.169,0,0,0-.3.515l-1.524,5.5A1.169,1.169,0,0,0,156.9,68.3l5.5-1.524a1.169,1.169,0,0,0,.515-.3L174.5,54.888a3.442,3.442,0,0,0,0-4.868l-.762-.762h0A3.421,3.421,0,0,0,171.3,48.249Zm0,2.338a1.1,1.1,0,0,1,.781.323l.762.762a1.1,1.1,0,0,1,0,1.562l-.321.321L170.2,51.232l.322-.322A1.1,1.1,0,0,1,171.3,50.587ZM159.8,61.634l8.749-8.749,2.324,2.324-8.749,8.749Zm-1.083,2.224,1.183,1.183-1.637.453Z" transform="translate(-148.657 -48.249)"/></svg>