<svg xmlns="http://www.w3.org/2000/svg" width="18.274" height="18.274" viewBox="0 0 18.274 18.274"><defs><style>.a{fill:#1976d2;}.b{fill:#fafafa;}</style></defs><path class="a" d="M15.99,0H2.284A2.287,2.287,0,0,0,0,2.284V15.99a2.287,2.287,0,0,0,2.284,2.284H15.99a2.287,2.287,0,0,0,2.284-2.284V2.284A2.287,2.287,0,0,0,15.99,0Z" transform="translate(0 0)"/><path class="b" d="M200.751,101.834h-2.917V99.5c0-.644.523-.583,1.167-.583h1.167V96h-2.334a3.5,3.5,0,0,0-3.5,3.5v2.334H192v2.917h2.334v6.417h3.5v-6.417h1.75Z" transform="translate(-185.278 -92.894)"/></svg>