<svg xmlns="http://www.w3.org/2000/svg" width="18.521" height="18.52" viewBox="0 0 18.521 18.52"><defs><style>.a{fill:#fbbd00;}.b{fill:#0f9d58;}.c{fill:#31aa52;}.d{fill:#3c79e6;}.e{fill:#cf2d48;}.f{fill:#eb4132;}</style></defs><path class="a" d="M4.434,105.772a4.7,4.7,0,0,1,.707-2.478v-3.079H1.952a8.885,8.885,0,0,0,0,11.114H5.141V108.25A4.7,4.7,0,0,1,4.434,105.772Z" transform="translate(0 -96.512)"/><path class="b" d="M198.217,373.665,196,375.882l2.217,2.217a9.389,9.389,0,0,0,5.757-1.952v-3.186h-3.186A5.025,5.025,0,0,1,198.217,373.665Z" transform="translate(-189.022 -359.579)"/><path class="c" d="M56.012,325.477l-3.189,3.189a9.608,9.608,0,0,0,.819.933,9.4,9.4,0,0,0,6.689,2.771v-4.435A5.028,5.028,0,0,1,56.012,325.477Z" transform="translate(-50.871 -313.849)"/><path class="d" d="M265.46,199.492a9.548,9.548,0,0,0-.155-1.714l-.083-.455H256v4.435h4.488a5,5,0,0,1-1.917,2.056L261.757,207a9.613,9.613,0,0,0,.932-.819A9.4,9.4,0,0,0,265.46,199.492Z" transform="translate(-246.94 -190.432)"/><path class="e" d="M201.771,5.906l.392.392L205.3,3.163l-.392-.392A9.4,9.4,0,0,0,198.217,0L196,2.217l2.217,2.217A4.993,4.993,0,0,1,201.771,5.906Z" transform="translate(-189.157 0)"/><path class="f" d="M60.33,4.435V0a9.4,9.4,0,0,0-6.689,2.771,9.6,9.6,0,0,0-.819.933l3.189,3.189A5.028,5.028,0,0,1,60.33,4.435Z" transform="translate(-50.87 0)"/></svg>