<svg xmlns="http://www.w3.org/2000/svg" width="34.525" height="24.563" viewBox="0 0 34.525 24.563"><defs><style>.a{fill:#fff;}</style></defs><g transform="translate(34.525 24.563) rotate(180)"><path class="a" d="M1.512,4.122H23.819c.835,0,1.513-.923,1.513-2.061S24.655,0,23.819,0H1.512C.677,0,0,.923,0,2.061S.676,4.122,1.512,4.122Z" transform="translate(9.193)"/><path class="a" d="M32.463,0H2.061a2.061,2.061,0,1,0,0,4.122h30.4a2.061,2.061,0,1,0,0-4.122Z" transform="translate(0 10.306)"/><path class="a" d="M23.818,0H1.512C.677,0,0,.923,0,2.061S.677,4.122,1.512,4.122H23.819c.835,0,1.513-.923,1.513-2.061S24.654,0,23.818,0Z" transform="translate(9.193 20.44)"/></g></svg>