<svg xmlns="http://www.w3.org/2000/svg" width="30.238" height="19.87" viewBox="0 0 30.238 19.87"><defs><style>.a{fill:#f2f0ec;}.b{opacity:0;}.c{fill:#fff;}.d{fill:#f26122;}.e{fill:#ea1d25;}.f{fill:#f69e1e;}</style></defs><rect class="a" width="30.238" height="19.87" rx="4"/><g transform="translate(2.936 2.021)"><g class="b"><rect class="c" width="24.445" height="16.166"/></g><rect class="d" width="6.448" height="10.533" transform="translate(8.999 2.816)"/><path class="e" d="M8.316,6.7a6.681,6.681,0,0,1,2.526-5.267,6.7,6.7,0,1,0,0,10.533A6.681,6.681,0,0,1,8.316,6.7Z" transform="translate(1.377 1.383)"/><path class="f" d="M.316.26H.272V0H.335L.417.183.493,0H.556V.259H.512v-.2L.442.234H.392L.316.063v.2Zm-.19,0H.089V.044H0V0H.221V.044H.126V.259Z" transform="translate(22.285 11.973)"/><path class="f" d="M10.836,6.7A6.7,6.7,0,0,1,0,11.963a6.7,6.7,0,0,0,1.124-9.4A6.568,6.568,0,0,0,0,1.429,6.7,6.7,0,0,1,10.836,6.7Z" transform="translate(12.219 1.387)"/></g></svg>