<svg xmlns="http://www.w3.org/2000/svg" width="32.763" height="42" viewBox="0 0 32.763 42"><defs><style>.a{fill:#74469c;}</style></defs><path class="a" d="M12.636,40.384a32.514,32.514,0,0,0,10.816,1.643c8.155,0,16.382-2.339,16.382-7.557A16.368,16.368,0,0,0,29.651,19.318a10.639,10.639,0,1,0-12.4,0A16.362,16.362,0,0,0,7.07,34.47C7.07,36.231,8.036,38.688,12.636,40.384Zm2.806-29.695a8.01,8.01,0,1,1,8.01,8A8.01,8.01,0,0,1,15.442,10.689Zm5.382,10.29a10.382,10.382,0,0,0,5.257,0A13.734,13.734,0,0,1,37.205,34.47c0,2.766-6.039,4.928-13.753,4.928S9.7,37.236,9.7,34.47a13.734,13.734,0,0,1,11.125-13.49Z" transform="translate(-7.07 -0.032)"/></svg>