<svg xmlns="http://www.w3.org/2000/svg" width="54" height="56" viewBox="0 0 54 56"><defs><style>.a,.b{fill:#fff;}.b{stroke:#a93b70;stroke-width:2px;}.c{fill:none;}.d{stroke:none;}</style></defs><g transform="translate(-0.403 0.007)"><g transform="translate(14.324 14.324)"><path class="a" d="M25.849,26.809H6.1A3.069,3.069,0,0,1,3,24.335a2.963,2.963,0,0,1,1.737-3.206A.337.337,0,0,0,5,20.792V11.886a10.981,10.981,0,0,1,21.961,0v8.906a.337.337,0,0,0,.22.287,2.964,2.964,0,0,1,1.777,3.256A3.069,3.069,0,0,1,25.849,26.809ZM15.977,3.058a8.945,8.945,0,0,0-8.984,8.906v8.906a2.315,2.315,0,0,1-1.407,2.108A.988.988,0,0,0,5,24.018a1.077,1.077,0,0,0,1.088.811H25.849a1.077,1.077,0,0,0,1.108-.811.988.988,0,0,0-.579-1.079,2.286,2.286,0,0,1-1.417-2.1V11.935A8.946,8.946,0,0,0,15.977,3.058Z" transform="translate(-2.958 -1)"/><path class="a" d="M16.408,31.278A5.278,5.278,0,0,1,11.13,26h2.111a3.167,3.167,0,0,0,6.334,0h2.111A5.278,5.278,0,0,1,16.408,31.278Z" transform="translate(-3.264 -1.332)"/></g><g class="b" transform="translate(30.403 12.993)"><circle class="d" cx="7" cy="7" r="7"/><circle class="c" cx="7" cy="7" r="6"/></g><rect class="c" width="54" height="56" transform="translate(0.403 -0.007)"/></g></svg>