<svg xmlns="http://www.w3.org/2000/svg" width="45.933" height="44.683" viewBox="0 0 45.933 44.683"><defs><style>.a,.b{fill:#74469c;}.b{stroke:#74469c;}</style></defs><path class="a" d="M111.069-64.156a1.159,1.159,0,0,0-1.157-1.157h-13a1.159,1.159,0,0,0-1.157,1.157A1.159,1.159,0,0,0,96.907-63h13A1.159,1.159,0,0,0,111.069-64.156Z" transform="translate(-74.849 73.708)"/><path class="a" d="M111.069-59.695a1.159,1.159,0,0,0-1.157-1.157h-13a1.159,1.159,0,0,0-1.157,1.157,1.159,1.159,0,0,0,1.157,1.159h13A1.159,1.159,0,0,0,111.069-59.695Z" transform="translate(-74.849 77.462)"/><path class="a" d="M91.848-59.108a1.172,1.172,0,0,0,.694.232,1.164,1.164,0,0,0,.879-.4l4.958-5.78a1.159,1.159,0,0,0-.127-1.633,1.155,1.155,0,0,0-.751-.279,1.165,1.165,0,0,0-.882.4l-4.248,4.958-2.433-1.829a1.146,1.146,0,0,0-.694-.232,1.163,1.163,0,0,0-.927.464,1.15,1.15,0,0,0-.22.858,1.148,1.148,0,0,0,.451.764Z" transform="translate(-82.665 72.028)"/><path class="a" d="M98.251-60.89a1.155,1.155,0,0,0-.751-.279,1.159,1.159,0,0,0-.882.4l-4.248,4.956-2.433-1.827a1.146,1.146,0,0,0-.694-.232,1.163,1.163,0,0,0-.927.464,1.15,1.15,0,0,0-.22.858,1.148,1.148,0,0,0,.451.764l3.3,2.477a1.172,1.172,0,0,0,.694.232,1.164,1.164,0,0,0,.879-.4l4.958-5.782a1.143,1.143,0,0,0,.275-.842A1.149,1.149,0,0,0,98.251-60.89Z" transform="translate(-82.665 77.351)"/><path class="a" d="M97.5-54.953a1.16,1.16,0,0,0-.882.406l-4.248,4.956L89.936-51.42a1.144,1.144,0,0,0-.694-.23,1.162,1.162,0,0,0-.927.462,1.156,1.156,0,0,0-.22.859,1.144,1.144,0,0,0,.451.762l3.3,2.479a1.172,1.172,0,0,0,.694.232,1.17,1.17,0,0,0,.879-.4l4.958-5.782a1.159,1.159,0,0,0-.127-1.633A1.155,1.155,0,0,0,97.5-54.953Z" transform="translate(-82.665 83.077)"/><path class="a" d="M117.249-69.872H94.7a9.736,9.736,0,0,0-9.724,9.726V-37.59A9.732,9.732,0,0,0,94.7-27.872h6.711a1.221,1.221,0,0,0,1.219-1.219,1.221,1.221,0,0,0-1.219-1.221H94.7A7.293,7.293,0,0,1,87.415-37.6V-60.146A7.293,7.293,0,0,1,94.7-67.432h22.558a7.29,7.29,0,0,1,7.279,7.286v8.05a1.221,1.221,0,0,0,1.219,1.219,1.221,1.221,0,0,0,1.221-1.219v-8.05A9.738,9.738,0,0,0,117.249-69.872ZM101.41-28.331h0a.759.759,0,0,0,.3-.061A.759.759,0,0,1,101.41-28.331Zm0-1.522a.759.759,0,0,1,.3.061.759.759,0,0,0-.3-.061Z" transform="translate(-84.975 69.872)"/><g transform="translate(20.628 22.285)"><g transform="translate(2.903 0)"><path class="b" d="M136.31,88.158a10.317,10.317,0,0,1,.091-1.364c-.01.068-.018.133-.028.2a10.232,10.232,0,0,1,.715-2.612l-.075.181a9.91,9.91,0,0,1,.7-1.359q.2-.325.423-.634c.038-.053.078-.106.118-.159a.459.459,0,0,1,.06-.078s-.126.161-.058.075c.083-.1.164-.206.249-.307a10.243,10.243,0,0,1,1.062-1.079c.091-.081.184-.158.277-.234.05-.043.1-.083.153-.123.088-.07-.075.06-.075.058a.689.689,0,0,1,.106-.08c.2-.151.413-.3.624-.433a10.3,10.3,0,0,1,1.53-.8l-.181.076a10.3,10.3,0,0,1,2.581-.7l-.2.028a10.508,10.508,0,0,1,2.725,0l-.2-.028a10.234,10.234,0,0,1,2.612.715l-.181-.075a9.915,9.915,0,0,1,1.359.7c.216.133.428.274.632.423.048.035.1.07.146.108l.065.05c.108.081-.153-.121-.048-.038s.206.164.307.249a10.243,10.243,0,0,1,1.079,1.062c.081.091.159.184.234.277.035.043.068.086.1.128s.113.151-.038-.048l.06.078c.154.2.3.41.435.624a10.3,10.3,0,0,1,.808,1.527l-.075-.181A10.337,10.337,0,0,1,155.117,87c-.01-.068-.018-.133-.028-.2a10.508,10.508,0,0,1,0,2.725c.01-.068.018-.133.028-.2a10.248,10.248,0,0,1-.712,2.607l.076-.181a9.917,9.917,0,0,1-.7,1.359c-.133.216-.274.428-.423.632-.035.048-.07.1-.108.146l-.05.065c-.081.108.121-.153.038-.048s-.164.206-.249.307a10.242,10.242,0,0,1-1.062,1.079c-.091.081-.184.159-.277.234l-.128.1c-.043.035-.151.113.048-.038l-.078.06c-.2.153-.41.3-.624.435a10.3,10.3,0,0,1-1.527.808l.181-.075a10.337,10.337,0,0,1-2.612.715l.2-.028a10.5,10.5,0,0,1-2.752,0l.2.028a10.127,10.127,0,0,1-2.559-.7l.181.075a10.291,10.291,0,0,1-1.819-.994c-.138-.1-.274-.2-.41-.3-.073-.055.136.106.063.05l-.045-.035c-.03-.023-.058-.048-.088-.07-.073-.058-.146-.118-.216-.179a9.439,9.439,0,0,1-.747-.707q-.192-.2-.377-.415c-.065-.075-.128-.153-.191-.229-.028-.035-.055-.068-.081-.1s-.075-.1,0,0,.005.005-.01-.013a.836.836,0,0,0-.45-.347.755.755,0,0,0-.928.526.733.733,0,0,0,.075.581,11.427,11.427,0,0,0,2.428,2.385,10.816,10.816,0,0,0,2.926,1.489A10.944,10.944,0,1,0,134.918,86.6a12.066,12.066,0,0,0-.118,1.562.755.755,0,0,0,1.51,0Z" transform="translate(-134.8 -77.211)"/></g><g transform="translate(0 5.105)"><path class="b" d="M27.7,282.487c-.574.319-1.15.639-1.723.961l-2.735,1.525-.629.35,1.032.272c-.32-.574-.639-1.15-.961-1.723q-.759-1.37-1.522-2.737l-.35-.629a.763.763,0,0,0-1.032-.272.771.771,0,0,0-.272,1.032q.479.864.959,1.726.762,1.366,1.522,2.735l.35.629a.767.767,0,0,0,1.032.272c.574-.32,1.15-.639,1.723-.961l2.735-1.525.629-.35a.754.754,0,0,0-.757-1.3Z" transform="translate(-19.409 -280.13)"/></g><g transform="translate(13.093 4.314)"><path class="b" d="M539.8,249.432v5.787a.883.883,0,0,0,.227.624c.161.174.337.337.506.506l2.332,2.332c.569.569,1.13,1.145,1.706,1.706l.028.028a.754.754,0,1,0,1.067-1.067l-1.547-1.547-2.466-2.466-.566-.566c.073.179.148.355.221.533v-5.87a.754.754,0,1,0-1.507,0Z" transform="translate(-539.8 -248.676)"/></g></g></svg>