<svg xmlns="http://www.w3.org/2000/svg" width="40.492" height="31.814" viewBox="0 0 40.492 31.814"><defs><style>.a{fill:#BD3761;}</style></defs><g transform="translate(40.492 31.814) rotate(180)"><path class="a" d="M0,15.907A2.431,2.431,0,0,0,.588,17.4L13.6,31.137a2.163,2.163,0,0,0,3.076.071,2.135,2.135,0,0,0,.064-3.054L7.208,18.076H38.322a2.169,2.169,0,0,0,0-4.338H7.208L16.744,3.66A2.143,2.143,0,0,0,16.679.6,2.17,2.17,0,0,0,13.6.677L.587,14.416A2.111,2.111,0,0,0,0,15.907Z" transform="translate(0 0)"/></g></svg>