<svg xmlns="http://www.w3.org/2000/svg" width="29.565" height="31" viewBox="0 0 29.565 31"><defs><style>.a{fill:#bd3761;}</style></defs><path class="a" d="M72.96,76.17a1.414,1.414,0,0,1-1.01-.442l-7.513-7.7a1.407,1.407,0,0,1,2.02-1.957L73.97,73.8a1.389,1.389,0,0,1-1.01,2.368Z" transform="translate(-44.804 -45.17)"/><path class="a" d="M16.178,26.445A12.808,12.808,0,0,1,3.3,13.722a12.879,12.879,0,0,1,25.757,0A12.829,12.829,0,0,1,16.178,26.445Zm0-22.635A10.017,10.017,0,0,0,6.084,13.722a10.079,10.079,0,0,0,20.156,0A10.01,10.01,0,0,0,16.178,3.81Z" transform="translate(-3.3 -1)"/></svg>