<svg xmlns="http://www.w3.org/2000/svg" width="42.303" height="36.677" viewBox="0 0 42.303 36.677"><defs><style>.a{fill:#1673b0;}</style></defs><g transform="translate(0 0)"><path class="a" d="M2.411,39.662a1.579,1.579,0,0,1-.437,0A1.41,1.41,0,0,1,1,38.252v-1.41A26.791,26.791,0,0,1,23.559,10.389l0-5.979a1.41,1.41,0,0,1,2.256-1.128L42.738,15.973a1.41,1.41,0,0,1,0,2.256L25.818,30.919a1.41,1.41,0,0,1-2.256-1.128V24.5A26.312,26.312,0,0,0,6.542,34.966L3.553,39.083A1.41,1.41,0,0,1,2.411,39.662ZM26.382,7.23v4.4a1.41,1.41,0,0,1-1.255,1.41A23.971,23.971,0,0,0,3.976,33.627l.226-.3A29.16,29.16,0,0,1,24.831,21.486a1.426,1.426,0,0,1,1.551,1.41v4.075L39.537,17.1Z" transform="translate(-0.999 -3)"/></g></svg>