<svg xmlns="http://www.w3.org/2000/svg" width="16.269" height="15.611" viewBox="0 0 16.269 15.611"><defs><style>.a{fill:none;stroke:#fff;stroke-linejoin:round;}</style></defs><g transform="translate(0.512 0.5)"><path class="a" d="M5.247,17.352a.89.89,0,0,1-.874-1.072l.713-4.17L2.058,9.167A.89.89,0,0,1,2.551,7.65l4.176-.606L8.6,3.25a.89.89,0,0,1,1.608,0h0l1.881,3.8,4.186.611a.89.89,0,0,1,.493,1.517l-3.029,2.953.7,4.154a.89.89,0,0,1-1.281.943L9.407,15.257,5.655,17.224A.884.884,0,0,1,5.247,17.352Zm8.41-5.167Z" transform="translate(-1.79 -2.741)"/></g></svg>