<svg xmlns="http://www.w3.org/2000/svg" width="49.909" height="17.088" viewBox="0 0 49.909 17.088"><defs><style>.a{fill:#fff;}</style></defs><path class="a" d="M28.758,17.088a12.733,12.733,0,0,1-4.495-.859l.742-3.575a8.026,8.026,0,0,0,3.809.975q.191,0,.382-.009c1.121,0,2.4-.857,2.4-1.609,0-.726-.6-1.125-2.1-2.037l-.046-.028c-1.478-.9-3.5-2.142-3.5-4.477,0-3.221,2.78-5.47,6.761-5.47a10.4,10.4,0,0,1,3.75.714l-.709,3.575a7.5,7.5,0,0,0-3.257-.75c-.243,0-.49.012-.733.036-1.166.147-1.688.806-1.688,1.393-.013.773.909,1.288,1.976,1.884,1.633.911,3.665,2.046,3.665,4.661l.07-.071C35.786,14.873,33.025,17.088,28.758,17.088ZM39.6,16.949h0l-4.255,0L41.428,1.609A1.857,1.857,0,0,1,43.145.393h3.386l3.378,16.55-3.716,0-.575-2.468h-5.17L39.6,16.947ZM43.794,4.862l-2.129,6.22,3.616-.035Zm-22.4,12.05H17.369L20.747.357h4.021L21.39,16.909Zm-8.953,0H8.111L4.732,3.719a1.9,1.9,0,0,0-.949-1.467A17.1,17.1,0,0,0,0,.859v-.5H6.758A1.918,1.918,0,0,1,8.616,2.072l1.724,9.546L14.869.357h4.121L12.437,16.909Z"/></svg>