<svg xmlns="http://www.w3.org/2000/svg" width="34.253" height="30.185" viewBox="0 0 34.253 30.185"><defs><style>.a{fill:none;stroke:#fff;stroke-linecap:round;stroke-linejoin:round;stroke-width:1.75px;}</style></defs><g transform="translate(0.875 0.875)"><path class="a" d="M18.645,967.382a8.543,8.543,0,0,0-6.109,2.578,8.866,8.866,0,0,0,0,12.384L25.39,995.452a1.22,1.22,0,0,0,1.74,0Q33.564,988.9,40,982.357a8.862,8.862,0,0,0,0-12.384,8.566,8.566,0,0,0-12.231,0l-1.5,1.524-1.511-1.537A8.543,8.543,0,0,0,18.645,967.382Z" transform="translate(-10.015 -967.382)"/></g></svg>