<svg xmlns="http://www.w3.org/2000/svg" width="51" height="50" viewBox="0 0 51 50"><defs><style>.a{fill:#bd3761;}.b{fill:#fff;}</style></defs><g transform="translate(-0.102 -0.408)"><rect class="a" width="51" height="50" rx="5" transform="translate(0.102 0.408)"/><g transform="translate(13.198 14.5)"><path class="b" d="M16.63,967.382a6.549,6.549,0,0,0-4.683,1.976,6.8,6.8,0,0,0,0,9.493L21.8,988.9a.935.935,0,0,0,1.334,0Q28.066,983.876,33,978.86a6.793,6.793,0,0,0,0-9.493,6.566,6.566,0,0,0-9.376,0l-1.149,1.168-1.159-1.178A6.549,6.549,0,0,0,16.63,967.382Z" transform="translate(-10.015 -967.382)"/></g></g></svg>